<?xml version="1.0" encoding="UTF-8"?>
<svg version="1.1" xmlns="http://www.w3.org/2000/svg" width="300" height="88">
<path d="M0 0 C2.85791972 2.34495977 3.82725165 3.48175495 5 7 C5.13823411 8.92049225 5.22493815 10.84489411 5.28125 12.76953125 C5.33732422 14.47399414 5.33732422 14.47399414 5.39453125 16.21289062 C5.44673828 17.99469727 5.44673828 17.99469727 5.5 19.8125 C5.56923704 22.15245552 5.64203779 24.49230886 5.71875 26.83203125 C5.74904297 27.87077393 5.77933594 28.9095166 5.81054688 29.97973633 C5.93715005 33.0579345 5.93715005 33.0579345 6.64257812 36.26049805 C6.81950195 37.61655151 6.81950195 37.61655151 7 39 C5 41 5 41 1.875 41.125 C0.92625 41.08375 -0.0225 41.0425 -1 41 C-1.66 39.68 -2.32 38.36 -3 37 C-3.61746094 37.28875 -4.23492187 37.5775 -4.87109375 37.875 C-12.36015845 41.15787768 -17.91035545 42.20678036 -25.8125 39.875 C-29.65713563 37.61344963 -31.18437529 36.0851556 -33 32 C-33.4097318 27.2588178 -32.71878306 24.00194002 -29.9375 20.125 C-23.63506886 15.56579449 -17.09049018 14.51938719 -9.5390625 13.4296875 C-7.01642941 13.12975698 -7.01642941 13.12975698 -5 12 C-5.34786708 10.02463255 -5.34786708 10.02463255 -6 8 C-9.44356982 6.27821509 -13.2271572 6.62141024 -17 7 C-19.96912882 8.38980498 -21.69657028 9.69657028 -24 12 C-27.625 11.625 -27.625 11.625 -31 11 C-31.37810643 7.69156877 -31.15283119 6.24688115 -29.375 3.375 C-21.53359802 -4.46640198 -9.55168028 -4.90042728 0 0 Z M-14 22.8125 C-15.051875 22.98394531 -16.10375 23.15539062 -17.1875 23.33203125 C-20.18378953 23.87160887 -20.18378953 23.87160887 -23 26 C-22.62095792 29.29075996 -22.62095792 29.29075996 -21 32 C-16.43111767 32.43996645 -12.26553367 32.46488992 -7.9375 30.875 C-5.37991175 28.3999146 -5.23225633 26.48384489 -5 23 C-8.50690786 21.83103071 -10.3825367 22.19628995 -14 22.8125 Z " fill="#F1F2F2" transform="translate(238,24)"/>
<path d="M0 0 C3.5625 0.1875 3.5625 0.1875 5.5625 2.1875 C5.7578125 4.72192383 5.7578125 4.72192383 5.6875 7.89453125 C5.67203125 9.03857422 5.6565625 10.18261719 5.640625 11.36132812 C5.58879316 13.77539604 5.53671228 16.18945862 5.484375 18.60351562 C5.46890625 19.75142578 5.4534375 20.89933594 5.4375 22.08203125 C5.41429688 23.13237549 5.39109375 24.18271973 5.3671875 25.26489258 C5.57006661 28.30072493 6.27904834 30.44721701 7.5625 33.1875 C8.99905854 33.26881463 10.4369483 33.32683559 11.875 33.375 C12.67550781 33.40980469 13.47601563 33.44460937 14.30078125 33.48046875 C16.56568226 33.33642798 16.56568226 33.33642798 18.29296875 32.17578125 C22.02288292 26.33416183 20.61573358 17.2301637 20.43554688 10.546875 C20.33349448 3.4392257 20.33349448 3.4392257 22.5625 0.1875 C24.89544775 0.14508277 27.22952567 0.14657063 29.5625 0.1875 C30.5625 1.1875 30.5625 1.1875 30.67602539 5.06469727 C30.67586621 6.79444167 30.67016849 8.52419081 30.66015625 10.25390625 C30.6587413 11.16252914 30.65732635 12.07115204 30.65586853 13.00730896 C30.65025193 15.92157221 30.63769665 18.83575981 30.625 21.75 C30.61998714 23.72070202 30.61542386 25.69140524 30.61132812 27.66210938 C30.60027711 32.50393559 30.58300138 37.34570495 30.5625 42.1875 C28.21484375 42.7890625 28.21484375 42.7890625 25.5625 43.1875 C24.758125 42.65125 23.95375 42.115 23.125 41.5625 C21.8565625 40.881875 21.8565625 40.881875 20.5625 40.1875 C18.5362129 41.13310065 16.53870986 42.14127125 14.5625 43.1875 C9.02314744 43.81291077 5.3575609 43.04325802 0.32421875 40.74609375 C-3.28646168 37.55172237 -4.33947654 33.18425093 -4.79394531 28.56298828 C-4.77992676 26.67942627 -4.77992676 26.67942627 -4.765625 24.7578125 C-4.76281525 23.74411087 -4.76281525 23.74411087 -4.75994873 22.70993042 C-4.75327909 21.29647816 -4.73946742 19.88304273 -4.71875 18.46972656 C-4.68728058 16.29735334 -4.67774155 14.12570477 -4.671875 11.953125 C-4.59407211 0.25058575 -4.59407211 0.25058575 0 0 Z " fill="#F1F3F2" transform="translate(85.4375,21.8125)"/>
<path d="M0 0 C3.26361988 2.59757501 4.68655421 4.05966262 6 8 C6.0845387 10.4410776 6.11605786 12.85259213 6.09765625 15.29296875 C6.0962413 15.99899734 6.09482635 16.70502594 6.09336853 17.43244934 C6.08777764 19.68417626 6.07522688 21.93580321 6.0625 24.1875 C6.05748382 25.71549335 6.05292112 27.24348827 6.04882812 28.77148438 C6.0378112 32.51436135 6.02055287 36.25716373 6 40 C3.42786866 41.61949011 2.32330841 42.04408751 -0.75 41.625 C-1.4925 41.41875 -2.235 41.2125 -3 41 C-3.01981934 40.24380371 -3.03963867 39.48760742 -3.06005859 38.70849609 C-3.15564572 35.26366282 -3.26518891 31.81940799 -3.375 28.375 C-3.4059375 27.18519531 -3.436875 25.99539062 -3.46875 24.76953125 C-3.50742188 23.61582031 -3.54609375 22.46210937 -3.5859375 21.2734375 C-3.63306885 19.68668213 -3.63306885 19.68668213 -3.68115234 18.06787109 C-4.03479466 14.66521465 -4.47451517 10.52548483 -7 8 C-10.56299364 7.73109482 -13.14142853 7.57071426 -16.375 9.1875 C-19.45562558 12.62358238 -19.13633028 17.23418989 -19.24609375 21.66796875 C-19.27896484 22.72564453 -19.31183594 23.78332031 -19.34570312 24.87304688 C-19.40722247 27.09428798 -19.46447038 29.31565124 -19.51757812 31.53710938 C-19.55173828 32.59091797 -19.58589844 33.64472656 -19.62109375 34.73046875 C-19.6461499 35.69364014 -19.67120605 36.65681152 -19.69702148 37.64916992 C-20 40 -20 40 -22 42 C-25.625 41.625 -25.625 41.625 -29 41 C-29.19230423 35.50108703 -29.37102036 30.00196459 -29.53710938 24.50219727 C-29.59553918 22.63098284 -29.65769285 20.75988085 -29.72363281 18.88891602 C-29.81772435 16.20089184 -29.8984537 13.5127489 -29.9765625 10.82421875 C-30.02485703 9.56782845 -30.02485703 9.56782845 -30.0741272 8.28605652 C-30.22774341 2.34161512 -30.22774341 2.34161512 -28 -1 C-27.05640625 -0.85691406 -27.05640625 -0.85691406 -26.09375 -0.7109375 C-21.78322318 -0.15264638 -18.18134643 0.28272826 -14 -1.0625 C-9.12228559 -2.50701583 -4.72698101 -1.73809955 0 0 Z " fill="#F1F3F2" transform="translate(154,23)"/>
<path d="M0 0 C4.24196166 5.04808474 6.3759517 11.1719139 8.3125 17.375 C8.57611328 18.18066406 8.83972656 18.98632812 9.11132812 19.81640625 C11 25.67374188 11 25.67374188 11 28 C11.66 28 12.32 28 13 28 C13.23783203 27.05253906 13.23783203 27.05253906 13.48046875 26.0859375 C19.45066292 3.19469577 19.45066292 3.19469577 24 0 C27.6875 -0.1875 27.6875 -0.1875 31 0 C32.34110723 4.0233217 31.22776233 5.27977483 29.47265625 9.09375 C27.03366687 14.52995714 24.80956527 20.00420527 22.74609375 25.59375 C22.3389061 26.68647217 22.3389061 26.68647217 21.92349243 27.80126953 C20.80840066 30.7946897 19.69687819 33.7892295 18.60180664 36.79003906 C17.78580588 39.02048891 16.95468831 41.24482596 16.12109375 43.46875 C15.88136337 44.13757202 15.641633 44.80639404 15.39463806 45.4954834 C13.34992733 50.89416695 10.67698205 55.52765987 5.5 58.375 C2.80570152 59.04857462 0.75987503 59.36314145 -2 59 C-4.48307071 57.31505916 -4.93875261 56.23942162 -5.6875 53.3125 C-5.8421875 52.1678125 -5.8421875 52.1678125 -6 51 C-5.38511719 50.82984375 -4.77023438 50.6596875 -4.13671875 50.484375 C0.79987185 49.01058958 0.79987185 49.01058958 5.125 46.3125 C7.29815396 40.56916454 4.49918093 33.96813339 2.27734375 28.578125 C2.01240616 27.91085388 1.74746857 27.24358276 1.47450256 26.55609131 C0.63764218 24.45040778 -0.21119102 22.34987936 -1.0625 20.25 C-1.91643903 18.13550724 -2.76746469 16.02004091 -3.61021423 13.90106201 C-4.13208565 12.58947994 -4.66041428 11.2804434 -5.19606018 9.97442627 C-6.50517823 6.69077074 -7 4.61136922 -7 1 C-4.25345395 -0.37327303 -3.04670253 -0.63768192 0 0 Z " fill="#F2F2F2" transform="translate(46,22)"/>
<path d="M0 0 C2.10633718 1.70828921 2.93801608 2.52148416 3.29296875 5.26171875 C3.25816406 6.06222656 3.22335938 6.86273438 3.1875 7.6875 C3.16042969 8.49574219 3.13335937 9.30398437 3.10546875 10.13671875 C3.05326172 11.05904297 3.05326172 11.05904297 3 12 C4.98 12.99 6.96 13.98 9 15 C9 17.31 9 19.62 9 22 C7.02 22.66 5.04 23.32 3 24 C3 31.59 3 39.18 3 47 C5.31 47.99 7.62 48.98 10 50 C10.125 52.375 10.125 52.375 10 55 C7.6058839 57.3941161 6.96213689 57.29598923 3.6875 57.3125 C-0.37801711 57.17523978 -3.05171664 57.03762528 -6 54 C-8.05551047 49.22905202 -8.04557301 44.18255185 -7.9375 39.0703125 C-7.92033936 38.18722412 -7.90317871 37.30413574 -7.88549805 36.39428711 C-7.83738812 34.61035811 -7.76391619 32.82690664 -7.66333008 31.04516602 C-7.46519898 25.55928768 -7.46519898 25.55928768 -10.5078125 21.03125 C-11.33023438 20.3609375 -12.15265625 19.690625 -13 19 C-13.0625 16.8125 -13.0625 16.8125 -12 15 C-11.32453125 14.72285156 -10.6490625 14.44570313 -9.953125 14.16015625 C-9.30859375 13.77730469 -8.6640625 13.39445312 -8 13 C-7.56004738 10.93326515 -7.56004738 10.93326515 -7.6875 8.625 C-7.4430087 4.40752499 -7.4430087 4.40752499 -5.390625 2.51953125 C-3.4375 1.4375 -3.4375 1.4375 0 0 Z " fill="#F1F2F1" transform="translate(194,8)"/>
<path d="M0 0 C5.97873264 0.11935764 5.97873264 0.11935764 7.08984375 1.23046875 C7.14406478 4.08165482 7.13411106 6.90436688 7.07421875 9.75390625 C7.05772278 10.61102203 7.04122681 11.46813782 7.02423096 12.35122681 C6.98665926 14.16878366 6.94610418 15.98628087 6.90283203 17.80371094 C6.8402698 20.58651759 6.79874188 23.36914623 6.7578125 26.15234375 C6.71875068 27.91539393 6.67842748 29.6784167 6.63671875 31.44140625 C6.62719177 32.27586273 6.61766479 33.11031921 6.60784912 33.97006226 C6.4360513 39.77098163 6.4360513 39.77098163 4.76104736 41.99404907 C3.08984375 43.23046875 3.08984375 43.23046875 -0.09765625 42.91796875 C-1.02578125 42.69109375 -1.95390625 42.46421875 -2.91015625 42.23046875 C-4.22279432 38.24083464 -4.07205181 34.18575611 -4.078125 30.03515625 C-4.0814534 29.24650177 -4.0847818 28.45784729 -4.08821106 27.64529419 C-4.09326284 25.98277366 -4.09561993 24.32024304 -4.09545898 22.65771484 C-4.09765443 20.10757988 -4.11585265 17.55787149 -4.13476562 15.0078125 C-4.13769806 13.39192856 -4.13968386 11.77604257 -4.140625 10.16015625 C-4.14781052 9.39557098 -4.15499603 8.63098572 -4.16239929 7.8432312 C-4.13046779 0.4983591 -4.13046779 0.4983591 0 0 Z " fill="#F3F4F3" transform="translate(171.91015625,21.76953125)"/>
<path d="M0 0 C0.33 2.31 0.66 4.62 1 7 C-2.12296038 8.85064319 -4.37940768 9.29356154 -8 9 C-9 8 -9 8 -9.09765625 6.15234375 C-9.06510417 4.1015625 -9.03255208 2.05078125 -9 0 C-5.93109813 -1.53445094 -3.29905734 -0.54984289 0 0 Z " fill="#F4F4F4" transform="translate(262,56)"/>
<path d="M0 0 C2.8125 1.375 2.8125 1.375 3.8125 3.3125 C3.8125 5.375 3.8125 5.375 1.8125 8.375 C-0.9302508 8.84614738 -3.38308897 8.55305784 -6.1875 8.375 C-7.1875 7.375 -7.1875 7.375 -7.25 4.3125 C-7.229375 3.343125 -7.20875 2.37375 -7.1875 1.375 C-4.40925786 -0.54839841 -3.39528057 -0.66574129 0 0 Z " fill="#F4F4F4" transform="translate(175.1875,6.625)"/>
<path d="M0 0 C0.66 0.33 1.32 0.66 2 1 C1.51917969 1.39832031 1.03835937 1.79664063 0.54296875 2.20703125 C-1.37391825 4.43450247 -1.47741643 5.78834669 -1.6875 8.6875 C-1.75324219 9.49574219 -1.81898438 10.30398437 -1.88671875 11.13671875 C-1.92410156 11.75160156 -1.96148437 12.36648437 -2 13 C-3.65 13 -5.3 13 -7 13 C-6.01 12.34 -5.02 11.68 -4 11 C-3.53114148 8.86744896 -3.53114148 8.86744896 -3.5 6.5 C-3.40625 4.09375 -3.40625 4.09375 -3 2 C-2.01 1.34 -1.02 0.68 0 0 Z " fill="#F9FAFA" transform="translate(190,10)"/>
<path d="M0 0 C0.66 0 1.32 0 2 0 C2 2.97 2 5.94 2 9 C4.475 9.99 4.475 9.99 7 11 C7 11.33 7 11.66 7 12 C4.69 12 2.38 12 0 12 C0 8.04 0 4.08 0 0 Z " fill="#FBFBFB" transform="translate(195,11)"/>
</svg>
